<?xml version="1.0" encoding="UTF-8"?>
<!-- Generator: Adobe Illustrator 24.2.1, SVG Export Plug-In . SVG Version: 6.00 Build 0)  -->
<svg version="1.1" id="Layer_1" xmlns="http://www.w3.org/2000/svg" xmlns:xlink="http://www.w3.org/1999/xlink" x="0px" y="0px" viewBox="0 0 672.8 230.1" style="enable-background:new 0 0 672.8 230.1;" xml:space="preserve">
<style type="text/css">
	.st0{opacity:0.5;}
	.st1{clip-path:url(#SVGID_2_);fill:#0098FF;}
	.st2{clip-path:url(#SVGID_4_);fill:#98CB33;}
	.st3{clip-path:url(#SVGID_6_);fill:#98CB33;}
	.st4{clip-path:url(#SVGID_8_);fill:#FFFFFF;}
	.st5{clip-path:url(#SVGID_10_);fill:#FFFFFF;}
	.st6{clip-path:url(#SVGID_12_);fill:#FFFFFF;}
	.st7{clip-path:url(#SVGID_14_);fill:#FFFFFF;}
	.st8{clip-path:url(#SVGID_16_);fill:#FFFFFF;}
	.st9{clip-path:url(#SVGID_18_);fill:#FFFFFF;}
	.st10{clip-path:url(#SVGID_20_);fill:#FFFFFF;}
	.st11{enable-background:new    ;}
	.st12{fill:#98CB33;}
</style>
<path class="st0" d="M557.8,230.1H115c-63.3,0-115-51.8-115-115v0C0,51.8,51.8,0,115,0h442.7c63.3,0,115,51.8,115,115v0  C672.8,178.3,621,230.1,557.8,230.1z"/>
<g>
	<g>
		<g>
			<defs>
				<rect id="SVGID_1_" x="73.8" y="35.1" width="525.2" height="185.9"/>
			</defs>
			<clipPath id="SVGID_2_">
				<use xlink:href="#SVGID_1_" style="overflow:visible;"/>
			</clipPath>
			<path class="st1" d="M512.1,106.1c-10.5,0-19-8.5-19-19s8.5-19,19-19s19,8.5,19,19S522.6,106.1,512.1,106.1"/>
		</g>
	</g>
	<g>
		<g>
			<defs>
				<rect id="SVGID_3_" x="73.8" y="35.1" width="525.2" height="185.9"/>
			</defs>
			<clipPath id="SVGID_4_">
				<use xlink:href="#SVGID_3_" style="overflow:visible;"/>
			</clipPath>
			<path class="st2" d="M510.7,138.1c-4.9,0-8.9-4-8.9-8.9c0-4.9,4-8.9,8.9-8.9c18.6,0,33.7-15.1,33.7-33.7c0-4.9,4-8.9,8.9-8.9     s8.9,4,8.9,8.9C562.3,114.9,539.2,138.1,510.7,138.1"/>
		</g>
	</g>
	<g>
		<g>
			<defs>
				<rect id="SVGID_5_" x="73.8" y="35.1" width="525.2" height="185.9"/>
			</defs>
			<clipPath id="SVGID_6_">
				<use xlink:href="#SVGID_5_" style="overflow:visible;"/>
			</clipPath>
			<path class="st3" d="M508.3,175c-4.8,0-8.8-3.8-8.9-8.6c-0.2-4.9,3.7-9.1,8.6-9.2c20.3-0.7,39.1-8.7,52.9-22.6     c13.7-13.7,20.8-31.5,20.2-50.1c-0.2-4.9,3.7-9.1,8.6-9.3c4.9-0.2,9.1,3.7,9.3,8.6c0.8,23.6-8.2,46.1-25.4,63.3     c-17,17.1-40.1,27-64.9,27.8C508.5,175,508.4,175,508.3,175"/>
		</g>
	</g>
	<g>
		<g>
			<defs>
				<rect id="SVGID_7_" x="73.8" y="35.1" width="525.2" height="185.9"/>
			</defs>
			<clipPath id="SVGID_8_">
				<use xlink:href="#SVGID_7_" style="overflow:visible;"/>
			</clipPath>
			<path class="st4" d="M448.9,35.5c-27.8,0-50.5,22.1-51.5,49.6c0,0.3-0.1,0.6-0.1,1c0,18.6-15.1,33.7-33.7,33.7     c-4.9,0-8.9,4-8.9,8.9c0,4.9,4,8.9,8.9,8.9c27.8,0,50.5-22.1,51.5-49.6c0-0.3,0.1-0.6,0.1-1c0-18.6,15.1-33.7,33.7-33.7     c4.9,0,8.9-4,8.9-8.9C457.9,39.5,453.9,35.5,448.9,35.5"/>
		</g>
	</g>
	<g>
		<g>
			<defs>
				<rect id="SVGID_9_" x="73.8" y="35.1" width="525.2" height="185.9"/>
			</defs>
			<clipPath id="SVGID_10_">
				<use xlink:href="#SVGID_9_" style="overflow:visible;"/>
			</clipPath>
			<path class="st5" d="M509.6,35.5c-27.8,0-50.5,22.1-51.5,49.6c0,0.3-0.1,0.6-0.1,1c0,18.6-15.1,33.7-33.7,33.7     c-4.9,0-8.9,4-8.9,8.9c0,4.9,4,8.9,8.9,8.9c27.8,0,50.5-22.1,51.5-49.6c0-0.3,0.1-0.6,0.1-1c0-18.6,15.1-33.7,33.7-33.7     c4.9,0,8.9-4,8.9-8.9S514.5,35.5,509.6,35.5"/>
		</g>
	</g>
	<g>
		<g>
			<defs>
				<rect id="SVGID_11_" x="73.8" y="35.1" width="525.2" height="185.9"/>
			</defs>
			<clipPath id="SVGID_12_">
				<use xlink:href="#SVGID_11_" style="overflow:visible;"/>
			</clipPath>
			<path class="st6" d="M262.6,119.7c-18-0.4-32.6-15.1-32.9-33.1c0.3-18.2,15-32.9,33.2-33.2c17.6,0.3,32,14.2,33.1,31.7v2     c0,0.2,0,0.3,0,0.5C295.2,105.4,280.6,119.6,262.6,119.7 M313.9,86.6c0-0.2,0-0.3,0-0.5c0-0.3,0-0.6,0-0.9c0-0.2,0-0.4,0-0.6     V44.5c0-4.9-4-8.9-8.9-8.9s-8.9,4-8.9,8.9v3.6c-8.6-7.4-19.6-12-31.7-12.5c-0.3,0-0.6,0-0.9,0c-0.2,0-0.3,0-0.5,0     c-0.2,0-0.4,0-0.5,0c-0.3,0-0.6,0-0.9,0.1c-26.9,1-48.6,22.7-49.6,49.6c0,0.3,0,0.6,0,0.9c0,0.2,0,0.3,0,0.5c0,0.2,0,0.3,0,0.5     c0,0.3,0,0.6,0,0.9c1,27,22.9,48.8,50,49.6c0.2,0,0.3,0,0.5,0c0.1,0,0.2,0,0.2,0c0.3,0,0.5,0,0.8,0c0.4,0,0.7,0,1-0.1     c26.8-1.1,48.5-22.7,49.5-49.6c0-0.3,0-0.6,0-0.9C313.9,86.9,313.9,86.7,313.9,86.6"/>
		</g>
	</g>
	<g>
		<g>
			<defs>
				<rect id="SVGID_13_" x="73.8" y="35.1" width="525.2" height="185.9"/>
			</defs>
			<clipPath id="SVGID_14_">
				<use xlink:href="#SVGID_13_" style="overflow:visible;"/>
			</clipPath>
			<path class="st7" d="M203.3,123V88.1c0-0.3,0.1-0.7,0.1-1c0-27.7-22-50.4-49.5-51.5c-0.3,0-0.7-0.1-1.1-0.1c-0.3,0-0.5,0-0.8,0     c-0.1,0-0.1,0-0.2,0c-0.1,0-0.3,0-0.4,0c-27.2,0.8-49.1,22.6-50.1,49.7c0,0.3,0,0.6,0,0.9c0,0.2,0,0.3,0,0.5c0,0.2,0,0.3,0,0.5     c0,0.3,0,0.6,0.1,0.9c1,27.5,23.7,49.6,51.5,49.6c4.9,0,8.9-4,8.9-8.9c0-4.9-4-8.9-8.9-8.9c-18.4,0-33.4-14.8-33.7-33.2     c0.3-18.1,14.8-32.7,32.9-33.1c17.9,0.1,32.6,14.3,33.4,32.1c0,0.2,0,0.3,0,0.5v37c0,0.5,0.1,1.1,0.2,1.6     c-0.1,0.4-0.1,0.8-0.1,1.2c0,18.6-15.1,33.7-33.7,33.7c-4.9,0-8.9,4-8.9,8.9s4,8.9,8.9,8.9c28.4,0,51.6-23.1,51.6-51.6     c0-0.5-0.1-1.1-0.1-1.6C203.2,123.8,203.3,123.4,203.3,123"/>
		</g>
	</g>
	<g>
		<g>
			<defs>
				<rect id="SVGID_15_" x="73.8" y="35.1" width="525.2" height="185.9"/>
			</defs>
			<clipPath id="SVGID_16_">
				<use xlink:href="#SVGID_15_" style="overflow:visible;"/>
			</clipPath>
			<path class="st8" d="M82.7,137.6c-4.9,0-8.9-4-8.9-8.9V44.5c0-4.9,4-8.9,8.9-8.9s8.9,4,8.9,8.9v84.2     C91.7,133.6,87.7,137.6,82.7,137.6"/>
		</g>
	</g>
	<g>
		<g>
			<defs>
				<rect id="SVGID_17_" x="73.8" y="35.1" width="525.2" height="185.9"/>
			</defs>
			<clipPath id="SVGID_18_">
				<use xlink:href="#SVGID_17_" style="overflow:visible;"/>
			</clipPath>
			<path class="st9" d="M216,158.3h2.9c2.2,0,3.3,1.3,3.3,3.1c0,1.8-1.2,3.3-3.3,3.3h-2.8L216,158.3L216,158.3z M216,166.7h3.6     c2.6,0,4.1,1.6,4.1,3.7c0,2.2-1.8,3.7-4.2,3.7H216L216,166.7L216,166.7z M213.5,174.9c0,0.8,0.4,1.4,1.3,1.4h4.8     c4.3,0,6.6-2.7,6.6-5.9c0-2.7-1.9-4.7-4.4-5v-0.1c1.6-0.5,2.8-2.2,2.8-4.4c0-2.3-1.9-4.8-5.4-4.8h-4.4c-0.9,0-1.3,0.6-1.3,1.4     V174.9z M239.1,167.5l7.7,8.4c0.3,0.3,0.6,0.6,1.1,0.6c0.6,0,1.1-0.4,1.1-1c0-0.5-0.1-0.8-0.5-1.1l-6.4-7.1h1.1     c3-0.1,5.5-1.6,5.5-5.7c0-3.3-3-5.4-6.2-5.4h-4.6c-0.9,0-1.3,0.6-1.3,1.4v17.5c0,0.8,0.5,1.3,1.2,1.3c0.8,0,1.2-0.5,1.2-1.3     L239.1,167.5L239.1,167.5z M239.1,158.3h3.3c2.3,0,3.8,1.6,3.8,3.5c0,2.6-1.1,3.7-3.7,3.7h-3.4L239.1,158.3L239.1,158.3z      M259,168.3c0,6.8,4.4,8.2,7.8,8.2c3.5,0,7.8-1.4,7.8-8.2v-11c0-0.8-0.5-1.3-1.2-1.3c-0.8,0-1.2,0.5-1.2,1.3v12     c0,3.2-2.2,5-5.3,5c-3.2,0-5.3-1.9-5.3-5v-12c0-0.8-0.5-1.3-1.2-1.3c-0.8,0-1.2,0.5-1.2,1.3v11H259z M290.9,155.9     c-3.7,0-6,2.8-6,5.2c0,6.6,9.6,4.3,9.6,9.1c0,2.2-1.6,4.1-4.1,4.1c-2.6,0-3.7-1.6-4.6-1.6c-0.7,0-1,0.6-1,1.3     c0,1.4,2.9,2.4,5.6,2.4c4.4,0,6.8-3,6.8-6.4c0-6.8-9.6-4.7-9.6-9.1c0-1.7,1.4-2.9,3.2-2.9c2.5,0,2.9,1.3,4,1.3     c0.6,0,1.1-0.5,1.1-1.1C295.8,157,293.4,155.9,290.9,155.9 M312.3,155.9c-3.7,0-6,2.8-6,5.2c0,6.6,9.6,4.3,9.6,9.1     c0,2.2-1.6,4.1-4.1,4.1c-2.6,0-3.7-1.6-4.6-1.6c-0.7,0-1,0.6-1,1.3c0,1.4,2.9,2.4,5.6,2.4c4.4,0,6.8-3,6.8-6.4     c0-6.8-9.6-4.7-9.6-9.1c0-1.7,1.4-2.9,3.2-2.9c2.5,0,2.9,1.3,4,1.3c0.6,0,1.1-0.5,1.1-1.1C317.3,157,314.8,155.9,312.3,155.9      M331.2,167.4h5.5c0.7,0,1.2-0.4,1.2-1.2s-0.5-1.2-1.2-1.2h-5.5v-6.6h6c0.7,0,1.2-0.4,1.2-1.2s-0.5-1.2-1.2-1.2H330     c-0.9,0-1.3,0.6-1.3,1.4v17.5c0,0.8,0.4,1.4,1.3,1.4h7.2c0.7,0,1.2-0.4,1.2-1.2s-0.5-1.2-1.2-1.2h-6V167.4z M351.2,157.3     c0-0.8-0.5-1.3-1.2-1.3c-0.8,0-1.2,0.5-1.2,1.3V175c0,0.8,0.4,1.4,1.3,1.4h6.5c0.7,0,1.2-0.4,1.2-1.2s-0.5-1.2-1.2-1.2h-5.3     L351.2,157.3L351.2,157.3z M373.1,155.9c-3.7,0-6,2.8-6,5.2c0,6.6,9.6,4.3,9.6,9.1c0,2.2-1.6,4.1-4.1,4.1c-2.6,0-3.7-1.6-4.6-1.6     c-0.7,0-1,0.6-1,1.3c0,1.4,2.9,2.4,5.6,2.4c4.4,0,6.8-3,6.8-6.4c0-6.8-9.6-4.7-9.6-9.1c0-1.7,1.4-2.9,3.2-2.9     c2.5,0,2.9,1.3,4,1.3c0.6,0,1.1-0.5,1.1-1.1C378.1,157,375.6,155.9,373.1,155.9 M408.1,174.1l6.8-9c1.3-1.7,1.4-3,1.4-4.2     c0-2.6-2.1-5-5.4-5c-4.2,0-6.4,3-6.4,6.3c0,1,0.4,1.5,1.2,1.5c0.5,0,1.1-0.3,1.1-1.1c0-2.5,1.3-4.6,3.7-4.6     c1.8,0,3.2,1.3,3.2,3.1c0,1.2-0.6,2.5-1.5,3.6l-7,9.3c-0.4,0.6-0.5,0.8-0.5,1.1c0,0.4,0.3,1,1.4,1h9.8c0.6,0,1.1-0.5,1.1-1.1     s-0.5-1.1-1.1-1.1h-7.8L408.1,174.1L408.1,174.1z M428.8,166.2c0-3.9,1.6-8.1,6.2-8.1c4.5,0,6.2,4.3,6.2,8.1s-1.6,8.1-6.2,8.1     C430.4,174.3,428.8,170.1,428.8,166.2 M426.1,166.2c0,5.2,3.1,10.3,8.8,10.3s8.8-5,8.8-10.3c0-5.2-3.1-10.3-8.8-10.3     S426.1,161,426.1,166.2 M457.3,174.1l6.8-9c1.3-1.7,1.4-3,1.4-4.2c0-2.6-2.1-5-5.4-5c-4.2,0-6.4,3-6.4,6.3c0,1,0.4,1.5,1.2,1.5     c0.5,0,1.1-0.3,1.1-1.1c0-2.5,1.3-4.6,3.7-4.6c1.8,0,3.2,1.3,3.2,3.1c0,1.2-0.6,2.5-1.5,3.6l-7,9.3c-0.4,0.6-0.5,0.8-0.5,1.1     c0,0.4,0.3,1,1.4,1h9.8c0.6,0,1.1-0.5,1.1-1.1s-0.5-1.1-1.1-1.1h-7.8L457.3,174.1L457.3,174.1z M478.8,175.1     c0,0.8,0.5,1.3,1.2,1.3c0.8,0,1.2-0.5,1.2-1.3v-18.3c0-0.6-0.3-0.7-0.8-0.7h-4.3c-0.6,0-1.1,0.5-1.1,1.1c0,0.6,0.5,1.1,1.1,1.1     h2.6L478.8,175.1L478.8,175.1z"/>
		</g>
	</g>
	<g>
		<g>
			<defs>
				<rect id="SVGID_19_" x="73.8" y="35.1" width="525.2" height="185.9"/>
			</defs>
			<clipPath id="SVGID_20_">
				<use xlink:href="#SVGID_19_" style="overflow:visible;"/>
			</clipPath>
			<path class="st10" d="M384.9,35.1c-13.7,0-30.9,8.2-38.8,21V44.5c0-4.9-4-8.9-8.9-8.9s-8.9,4-8.9,8.9v84.2c0,4.9,4,8.9,8.9,8.9     s8.9-4,8.9-8.9V95.6c0-18.2,20.1-42.6,38.8-42.6c4.9,0,8.9-4,8.9-8.9C393.8,39.1,389.8,35.1,384.9,35.1"/>
		</g>
	</g>
</g>
<g class="st11">
	<path class="st12" d="M258.6,203.4c0,0.6-0.1,1.1-0.2,1.5s-0.3,0.8-0.5,1.2c-0.3,0.3-0.6,0.6-1,0.7c-0.4,0.2-0.9,0.3-1.5,0.3   c-0.2,0-0.4,0-0.6,0s-0.4-0.1-0.5-0.1c-0.2,0-0.3-0.1-0.4-0.1c-0.1-0.1-0.2-0.1-0.2-0.1s-0.1-0.1-0.1-0.1c0,0,0-0.1-0.1-0.2   c0-0.1,0-0.2,0-0.3c0-0.1,0-0.2,0-0.4c0-0.2,0-0.4,0-0.6c0-0.2,0-0.3,0-0.4c0-0.1,0.1-0.1,0.1-0.2c0,0,0.1-0.1,0.2-0.1   c0.1,0,0.1,0,0.2,0.1c0.1,0,0.2,0.1,0.3,0.1c0.1,0,0.2,0.1,0.3,0.1c0.1,0,0.3,0.1,0.5,0.1c0.2,0,0.3,0,0.5-0.1   c0.1,0,0.2-0.1,0.3-0.3s0.2-0.3,0.2-0.5c0-0.2,0.1-0.5,0.1-0.8v-8.6c0-0.1,0-0.1,0.1-0.2c0,0,0.1-0.1,0.2-0.1   c0.1,0,0.2-0.1,0.4-0.1c0.2,0,0.4,0,0.6,0c0.2,0,0.5,0,0.6,0s0.3,0,0.4,0.1c0.1,0,0.2,0.1,0.2,0.1c0,0,0.1,0.1,0.1,0.2V203.4z"/>
	<path class="st12" d="M271.6,202.2c0,0.8-0.1,1.5-0.3,2.1s-0.6,1.1-1,1.5c-0.4,0.4-1,0.7-1.6,1c-0.6,0.2-1.4,0.3-2.2,0.3   c-0.8,0-1.5-0.1-2.1-0.3c-0.6-0.2-1.2-0.5-1.6-0.9c-0.4-0.4-0.8-0.9-1-1.5c-0.2-0.6-0.3-1.3-0.3-2.1v-7.7c0-0.1,0-0.1,0.1-0.2   c0-0.1,0.1-0.1,0.2-0.1c0.1,0,0.2-0.1,0.4-0.1s0.4,0,0.6,0c0.2,0,0.5,0,0.6,0s0.3,0,0.4,0.1c0.1,0,0.2,0.1,0.2,0.1s0.1,0.1,0.1,0.2   v7.4c0,0.5,0.1,0.9,0.2,1.3c0.1,0.4,0.3,0.7,0.5,0.9c0.2,0.2,0.5,0.4,0.8,0.5c0.3,0.1,0.7,0.2,1.1,0.2c0.4,0,0.8-0.1,1.1-0.2   c0.3-0.1,0.6-0.3,0.8-0.5c0.2-0.2,0.4-0.5,0.5-0.9c0.1-0.3,0.2-0.7,0.2-1.2v-7.6c0-0.1,0-0.1,0.1-0.2c0-0.1,0.1-0.1,0.2-0.1   c0.1,0,0.2-0.1,0.4-0.1c0.2,0,0.4,0,0.6,0c0.2,0,0.4,0,0.6,0c0.2,0,0.3,0,0.4,0.1c0.1,0,0.2,0.1,0.2,0.1c0,0.1,0.1,0.1,0.1,0.2   V202.2z"/>
</g>
<g class="st11">
	<path class="st12" d="M281.3,205.9c0,0.2,0,0.4,0,0.5c0,0.1,0,0.2-0.1,0.3c0,0.1-0.1,0.2-0.1,0.2c0,0-0.1,0.1-0.2,0.1h-5.8   c-0.2,0-0.4-0.1-0.5-0.2c-0.1-0.1-0.2-0.3-0.2-0.6v-11.4c0-0.1,0-0.1,0.1-0.2s0.1-0.1,0.2-0.1c0.1,0,0.2-0.1,0.4-0.1   c0.2,0,0.4,0,0.6,0c0.3,0,0.5,0,0.6,0s0.3,0,0.4,0.1c0.1,0,0.2,0.1,0.2,0.1s0.1,0.1,0.1,0.2v10.1h4c0.1,0,0.1,0,0.2,0.1   c0,0,0.1,0.1,0.1,0.2c0,0.1,0.1,0.2,0.1,0.3C281.3,205.5,281.3,205.7,281.3,205.9z"/>
</g>
<g class="st11">
	<path class="st12" d="M286.1,202.1v4.4c0,0.1,0,0.1-0.1,0.2c0,0.1-0.1,0.1-0.2,0.1c-0.1,0-0.2,0.1-0.4,0.1c-0.2,0-0.4,0-0.6,0   c-0.3,0-0.5,0-0.6,0c-0.2,0-0.3,0-0.4-0.1c-0.1,0-0.2-0.1-0.2-0.1c0-0.1-0.1-0.1-0.1-0.2v-4.4l-3.4-6.9c-0.1-0.2-0.2-0.4-0.2-0.6   s0-0.2,0.1-0.3c0.1-0.1,0.2-0.1,0.4-0.1c0.2,0,0.5,0,0.8,0c0.3,0,0.5,0,0.7,0c0.2,0,0.3,0,0.4,0.1c0.1,0,0.2,0.1,0.2,0.1   c0,0.1,0.1,0.1,0.1,0.2l1.4,3.1c0.1,0.3,0.3,0.6,0.4,0.9c0.1,0.3,0.3,0.7,0.4,1h0c0.1-0.3,0.2-0.7,0.4-1c0.1-0.3,0.3-0.6,0.4-0.9   l1.4-3.1c0-0.1,0.1-0.2,0.1-0.2c0-0.1,0.1-0.1,0.2-0.2c0.1,0,0.2-0.1,0.4-0.1s0.4,0,0.7,0c0.4,0,0.7,0,0.9,0c0.2,0,0.3,0.1,0.4,0.1   c0.1,0.1,0.1,0.2,0.1,0.3c0,0.1-0.1,0.3-0.2,0.6L286.1,202.1z"/>
	<path class="st12" d="M303.7,205.9c0,0.2,0,0.3,0,0.5c0,0.1,0,0.2-0.1,0.3s-0.1,0.1-0.1,0.2c0,0-0.1,0-0.2,0h-6.9   c-0.1,0-0.1,0-0.1,0c0,0-0.1-0.1-0.1-0.2s-0.1-0.2-0.1-0.3c0-0.1,0-0.3,0-0.5c0-0.2,0-0.3,0-0.5c0-0.1,0-0.2,0.1-0.3   c0-0.1,0.1-0.1,0.1-0.2c0,0,0.1-0.1,0.2-0.1h2.3v-8.2l-2,1.1c-0.1,0.1-0.3,0.1-0.4,0.1c-0.1,0-0.2,0-0.2-0.1s-0.1-0.2-0.1-0.3   c0-0.1,0-0.3,0-0.6c0-0.2,0-0.3,0-0.4s0-0.2,0-0.3c0-0.1,0.1-0.1,0.1-0.2c0,0,0.1-0.1,0.2-0.1l2.7-1.8c0,0,0.1,0,0.1-0.1   s0.1,0,0.2,0c0.1,0,0.2,0,0.3,0c0.1,0,0.3,0,0.5,0c0.2,0,0.4,0,0.6,0s0.3,0,0.3,0c0.1,0,0.1,0.1,0.2,0.1c0,0,0,0.1,0,0.1v10.4h2.1   c0.1,0,0.1,0,0.2,0.1c0,0,0.1,0.1,0.1,0.2c0,0.1,0.1,0.2,0.1,0.3C303.7,205.6,303.7,205.8,303.7,205.9z"/>
	<path class="st12" d="M313.8,205.9c0,0.2,0,0.3,0,0.5c0,0.1,0,0.2-0.1,0.3s-0.1,0.1-0.1,0.2c0,0-0.1,0-0.2,0h-6.9   c-0.1,0-0.1,0-0.1,0c0,0-0.1-0.1-0.1-0.2s-0.1-0.2-0.1-0.3c0-0.1,0-0.3,0-0.5c0-0.2,0-0.3,0-0.5c0-0.1,0-0.2,0.1-0.3   c0-0.1,0.1-0.1,0.1-0.2c0,0,0.1-0.1,0.2-0.1h2.3v-8.2l-2,1.1c-0.1,0.1-0.3,0.1-0.4,0.1c-0.1,0-0.2,0-0.2-0.1s-0.1-0.2-0.1-0.3   c0-0.1,0-0.3,0-0.6c0-0.2,0-0.3,0-0.4s0-0.2,0-0.3c0-0.1,0.1-0.1,0.1-0.2c0,0,0.1-0.1,0.2-0.1l2.7-1.8c0,0,0.1,0,0.1-0.1   s0.1,0,0.2,0c0.1,0,0.2,0,0.3,0c0.1,0,0.3,0,0.5,0c0.2,0,0.4,0,0.6,0s0.3,0,0.3,0c0.1,0,0.1,0.1,0.2,0.1c0,0,0,0.1,0,0.1v10.4h2.1   c0.1,0,0.1,0,0.2,0.1c0,0,0.1,0.1,0.1,0.2c0,0.1,0.1,0.2,0.1,0.3C313.8,205.6,313.8,205.8,313.8,205.9z"/>
	<path class="st12" d="M320.2,202c0,0.4,0,0.6-0.1,0.8s-0.2,0.2-0.3,0.2h-4c-0.2,0-0.3-0.1-0.4-0.2s-0.1-0.4-0.1-0.8   c0-0.4,0-0.6,0.1-0.8c0.1-0.1,0.2-0.2,0.4-0.2h4c0.1,0,0.1,0,0.2,0c0.1,0,0.1,0.1,0.1,0.2c0,0.1,0.1,0.2,0.1,0.3   C320.2,201.7,320.2,201.8,320.2,202z"/>
	<path class="st12" d="M330,205.9c0,0.2,0,0.3,0,0.5c0,0.1,0,0.2-0.1,0.3s-0.1,0.1-0.1,0.2c0,0-0.1,0-0.2,0h-6.9c-0.1,0-0.1,0-0.1,0   c0,0-0.1-0.1-0.1-0.2s-0.1-0.2-0.1-0.3c0-0.1,0-0.3,0-0.5c0-0.2,0-0.3,0-0.5c0-0.1,0-0.2,0.1-0.3c0-0.1,0.1-0.1,0.1-0.2   c0,0,0.1-0.1,0.2-0.1h2.3v-8.2l-2,1.1c-0.1,0.1-0.3,0.1-0.4,0.1c-0.1,0-0.2,0-0.2-0.1s-0.1-0.2-0.1-0.3c0-0.1,0-0.3,0-0.6   c0-0.2,0-0.3,0-0.4s0-0.2,0-0.3c0-0.1,0.1-0.1,0.1-0.2c0,0,0.1-0.1,0.2-0.1l2.7-1.8c0,0,0.1,0,0.1-0.1s0.1,0,0.2,0   c0.1,0,0.2,0,0.3,0c0.1,0,0.3,0,0.5,0c0.2,0,0.4,0,0.6,0s0.3,0,0.3,0c0.1,0,0.1,0.1,0.2,0.1c0,0,0,0.1,0,0.1v10.4h2.1   c0.1,0,0.1,0,0.2,0.1c0,0,0.1,0.1,0.1,0.2c0,0.1,0.1,0.2,0.1,0.3C330,205.6,330,205.8,330,205.9z"/>
	<path class="st12" d="M340.4,202.7c0,0.6-0.1,1.2-0.3,1.8c-0.2,0.5-0.5,1-0.9,1.4c-0.4,0.4-0.8,0.7-1.4,0.9   c-0.6,0.2-1.2,0.3-1.9,0.3c-0.6,0-1.1-0.1-1.5-0.2s-0.8-0.3-1.1-0.6c-0.3-0.2-0.6-0.6-0.8-0.9c-0.2-0.4-0.4-0.8-0.5-1.2   c-0.1-0.4-0.2-0.9-0.2-1.5c0-0.5-0.1-1.1-0.1-1.7c0-0.5,0-1,0.1-1.5c0-0.5,0.1-1.1,0.3-1.6c0.1-0.5,0.3-1,0.6-1.5   c0.3-0.5,0.6-0.9,1-1.2c0.4-0.4,0.9-0.6,1.4-0.8c0.6-0.2,1.2-0.3,2-0.3c0.2,0,0.5,0,0.7,0c0.2,0,0.5,0.1,0.7,0.1   c0.2,0,0.4,0.1,0.5,0.2c0.1,0.1,0.2,0.1,0.3,0.2s0.1,0.1,0.1,0.1c0,0.1,0,0.1,0.1,0.2c0,0.1,0,0.1,0,0.2s0,0.2,0,0.3   c0,0.2,0,0.4,0,0.5s0,0.2-0.1,0.3c0,0.1-0.1,0.1-0.1,0.2c0,0-0.1,0-0.2,0c-0.1,0-0.2,0-0.3-0.1c-0.1,0-0.3-0.1-0.4-0.1   c-0.2-0.1-0.4-0.1-0.6-0.1c-0.2,0-0.5-0.1-0.8-0.1c-0.5,0-1,0.1-1.3,0.3c-0.4,0.2-0.7,0.5-0.9,0.8s-0.4,0.7-0.5,1.2   c-0.1,0.4-0.2,0.9-0.2,1.4c0.1-0.1,0.3-0.2,0.5-0.3c0.2-0.1,0.4-0.2,0.6-0.2c0.2-0.1,0.5-0.1,0.7-0.2c0.3,0,0.5-0.1,0.8-0.1   c0.6,0,1.2,0.1,1.6,0.3c0.5,0.2,0.8,0.4,1.1,0.7c0.3,0.3,0.5,0.7,0.6,1.2C340.3,201.6,340.4,202.2,340.4,202.7z M337.9,203   c0-0.3,0-0.6-0.1-0.9c-0.1-0.2-0.2-0.5-0.3-0.6c-0.1-0.2-0.3-0.3-0.5-0.4s-0.5-0.1-0.8-0.1c-0.2,0-0.4,0-0.5,0   c-0.2,0-0.3,0.1-0.5,0.1c-0.2,0.1-0.3,0.1-0.5,0.2s-0.3,0.2-0.4,0.3c0,0.7,0,1.3,0.1,1.7c0.1,0.5,0.2,0.8,0.3,1.1   c0.2,0.3,0.3,0.5,0.6,0.6c0.2,0.1,0.5,0.2,0.8,0.2c0.3,0,0.6-0.1,0.8-0.2s0.4-0.3,0.6-0.5c0.1-0.2,0.3-0.4,0.3-0.7   C337.9,203.6,337.9,203.3,337.9,203z"/>
	<path class="st12" d="M345.1,205.1c0,0.3,0,0.5,0,0.7c0,0.2-0.1,0.4-0.1,0.6s-0.1,0.4-0.2,0.5c-0.1,0.2-0.2,0.4-0.3,0.5l-1.3,1.9   c0,0.1-0.1,0.1-0.2,0.2c-0.1,0-0.1,0.1-0.2,0.1c-0.1,0-0.2,0-0.3,0.1c-0.1,0-0.2,0-0.4,0c-0.2,0-0.3,0-0.5,0c-0.1,0-0.2,0-0.3-0.1   c-0.1,0-0.1-0.1-0.1-0.1c0-0.1,0-0.1,0-0.2l1.2-2.7v-1.5c0-0.2,0-0.4,0.1-0.5c0.1-0.1,0.1-0.2,0.2-0.3s0.2-0.1,0.4-0.1   c0.2,0,0.4,0,0.6,0c0.2,0,0.4,0,0.6,0c0.2,0,0.3,0.1,0.4,0.1c0.1,0.1,0.2,0.2,0.2,0.3C345.1,204.7,345.1,204.9,345.1,205.1z"/>
	<path class="st12" d="M360,205.9c0,0.2,0,0.3,0,0.5c0,0.1,0,0.2-0.1,0.3s-0.1,0.1-0.1,0.2c-0.1,0-0.1,0.1-0.2,0.1h-7.2   c-0.1,0-0.3,0-0.4,0c-0.1,0-0.2-0.1-0.3-0.2c-0.1-0.1-0.1-0.2-0.1-0.3s0-0.3,0-0.6c0-0.2,0-0.4,0-0.5s0.1-0.3,0.1-0.4   c0.1-0.1,0.1-0.2,0.2-0.3s0.2-0.2,0.3-0.4l2.2-2.3c0.4-0.5,0.8-0.9,1-1.2s0.5-0.7,0.6-1c0.1-0.3,0.3-0.6,0.3-0.9   c0.1-0.3,0.1-0.5,0.1-0.7c0-0.2,0-0.4-0.1-0.6c-0.1-0.2-0.2-0.4-0.3-0.5s-0.3-0.3-0.5-0.3s-0.4-0.1-0.7-0.1c-0.4,0-0.7,0-1,0.1   c-0.3,0.1-0.6,0.2-0.8,0.3s-0.4,0.2-0.6,0.3c-0.1,0.1-0.3,0.2-0.3,0.2c-0.1,0-0.1,0-0.2-0.1c0,0-0.1-0.1-0.1-0.2   c0-0.1,0-0.2-0.1-0.4c0-0.2,0-0.3,0-0.6c0-0.1,0-0.3,0-0.4s0-0.2,0-0.3c0-0.1,0-0.1,0.1-0.2c0-0.1,0.1-0.1,0.2-0.2   c0.1-0.1,0.2-0.2,0.4-0.3c0.2-0.1,0.5-0.2,0.8-0.4c0.3-0.1,0.7-0.2,1.1-0.3c0.4-0.1,0.8-0.1,1.2-0.1c0.7,0,1.2,0.1,1.7,0.2   c0.5,0.2,0.9,0.4,1.2,0.7c0.3,0.3,0.6,0.6,0.7,1.1c0.2,0.4,0.2,0.8,0.2,1.3c0,0.4,0,0.8-0.1,1.2s-0.2,0.8-0.5,1.3s-0.6,1-1,1.5   c-0.4,0.6-1,1.2-1.8,1.9l-1.5,1.5h5c0.1,0,0.1,0,0.2,0.1c0.1,0,0.1,0.1,0.1,0.2s0.1,0.2,0.1,0.3S360,205.7,360,205.9z"/>
	<path class="st12" d="M370.3,200.6c0,1-0.1,1.9-0.2,2.7s-0.4,1.5-0.8,2.1c-0.4,0.6-0.8,1-1.4,1.3s-1.3,0.5-2.2,0.5   c-0.9,0-1.6-0.1-2.1-0.4c-0.6-0.3-1-0.7-1.3-1.3c-0.3-0.6-0.6-1.2-0.7-2s-0.2-1.7-0.2-2.7c0-1,0.1-1.9,0.2-2.7s0.4-1.5,0.8-2.1   c0.4-0.6,0.8-1,1.4-1.3s1.3-0.5,2.1-0.5c0.9,0,1.6,0.1,2.1,0.4s1,0.7,1.3,1.3c0.3,0.6,0.6,1.2,0.7,2S370.3,199.6,370.3,200.6z    M367.7,200.7c0-0.6,0-1.1,0-1.6c0-0.5-0.1-0.9-0.2-1.2c-0.1-0.3-0.2-0.6-0.3-0.9c-0.1-0.2-0.2-0.4-0.4-0.6s-0.3-0.2-0.5-0.3   s-0.4-0.1-0.6-0.1c-0.4,0-0.7,0.1-0.9,0.3c-0.2,0.2-0.4,0.5-0.6,0.8c-0.1,0.4-0.2,0.8-0.3,1.4c-0.1,0.6-0.1,1.2-0.1,1.9   c0,0.9,0,1.6,0.1,2.2s0.2,1.1,0.3,1.4c0.2,0.3,0.3,0.6,0.6,0.7c0.2,0.1,0.5,0.2,0.9,0.2c0.3,0,0.5,0,0.7-0.1s0.4-0.2,0.5-0.4   c0.1-0.2,0.3-0.4,0.4-0.6c0.1-0.2,0.2-0.5,0.2-0.9c0.1-0.3,0.1-0.7,0.1-1.1C367.7,201.6,367.7,201.2,367.7,200.7z"/>
	<path class="st12" d="M380.1,205.9c0,0.2,0,0.3,0,0.5c0,0.1,0,0.2-0.1,0.3s-0.1,0.1-0.1,0.2c-0.1,0-0.1,0.1-0.2,0.1h-7.2   c-0.1,0-0.3,0-0.4,0c-0.1,0-0.2-0.1-0.3-0.2c-0.1-0.1-0.1-0.2-0.1-0.3s0-0.3,0-0.6c0-0.2,0-0.4,0-0.5s0.1-0.3,0.1-0.4   c0.1-0.1,0.1-0.2,0.2-0.3s0.2-0.2,0.3-0.4l2.2-2.3c0.4-0.5,0.8-0.9,1-1.2s0.5-0.7,0.6-1c0.1-0.3,0.3-0.6,0.3-0.9   c0.1-0.3,0.1-0.5,0.1-0.7c0-0.2,0-0.4-0.1-0.6c-0.1-0.2-0.2-0.4-0.3-0.5s-0.3-0.3-0.5-0.3s-0.4-0.1-0.7-0.1c-0.4,0-0.7,0-1,0.1   c-0.3,0.1-0.6,0.2-0.8,0.3s-0.4,0.2-0.6,0.3c-0.1,0.1-0.3,0.2-0.3,0.2c-0.1,0-0.1,0-0.2-0.1c0,0-0.1-0.1-0.1-0.2   c0-0.1,0-0.2-0.1-0.4c0-0.2,0-0.3,0-0.6c0-0.1,0-0.3,0-0.4s0-0.2,0-0.3c0-0.1,0-0.1,0.1-0.2c0-0.1,0.1-0.1,0.2-0.2   c0.1-0.1,0.2-0.2,0.4-0.3c0.2-0.1,0.5-0.2,0.8-0.4c0.3-0.1,0.7-0.2,1.1-0.3c0.4-0.1,0.8-0.1,1.2-0.1c0.7,0,1.2,0.1,1.7,0.2   c0.5,0.2,0.9,0.4,1.2,0.7c0.3,0.3,0.6,0.6,0.7,1.1c0.2,0.4,0.2,0.8,0.2,1.3c0,0.4,0,0.8-0.1,1.2s-0.2,0.8-0.5,1.3s-0.6,1-1,1.5   c-0.4,0.6-1,1.2-1.8,1.9l-1.5,1.5h5c0.1,0,0.1,0,0.2,0.1c0.1,0,0.1,0.1,0.1,0.2s0.1,0.2,0.1,0.3S380.1,205.7,380.1,205.9z"/>
	<path class="st12" d="M390.1,205.9c0,0.2,0,0.3,0,0.5c0,0.1,0,0.2-0.1,0.3c0,0.1-0.1,0.1-0.1,0.2c0,0-0.1,0-0.2,0h-6.9   c-0.1,0-0.1,0-0.1,0c0,0-0.1-0.1-0.1-0.2c0-0.1-0.1-0.2-0.1-0.3c0-0.1,0-0.3,0-0.5c0-0.2,0-0.3,0-0.5c0-0.1,0-0.2,0.1-0.3   c0-0.1,0.1-0.1,0.1-0.2c0,0,0.1-0.1,0.2-0.1h2.3v-8.2l-2,1.1c-0.1,0.1-0.3,0.1-0.4,0.1c-0.1,0-0.2,0-0.2-0.1   c-0.1-0.1-0.1-0.2-0.1-0.3c0-0.1,0-0.3,0-0.6c0-0.2,0-0.3,0-0.4c0-0.1,0-0.2,0-0.3s0.1-0.1,0.1-0.2c0,0,0.1-0.1,0.2-0.1l2.7-1.8   c0,0,0.1,0,0.1-0.1s0.1,0,0.2,0c0.1,0,0.2,0,0.3,0c0.1,0,0.3,0,0.5,0c0.2,0,0.4,0,0.6,0s0.3,0,0.3,0c0.1,0,0.1,0.1,0.2,0.1   c0,0,0,0.1,0,0.1v10.4h2.1c0.1,0,0.1,0,0.2,0.1c0,0,0.1,0.1,0.1,0.2c0,0.1,0.1,0.2,0.1,0.3C390.1,205.6,390.1,205.8,390.1,205.9z"/>
</g>
</svg>